<svg width="308" height="308" viewBox="0 0 308 308" fill="none" xmlns="http://www.w3.org/2000/svg">
<g opacity="0.6">
<mask id="path-1-inside-1_423_10834" fill="white">
<path fill-rule="evenodd" clip-rule="evenodd" d="M201.96 1.37333C200.835 2.12888 197.137 6.52739 193.743 11.1485C190.348 15.7696 186.762 21.1745 185.774 23.1596C184.786 25.1447 183.534 28.5266 182.992 30.6753C182.27 33.5314 182.084 36.1993 182.299 40.6008C182.518 45.0926 182.985 47.6419 184.139 50.6485C184.989 52.864 186.603 56.1123 187.724 57.867C188.845 59.6212 190.082 61.9774 190.473 63.1017C190.863 64.2266 191.183 66.4289 191.183 67.9959C191.183 70.0418 190.674 71.755 189.379 74.0721C188.386 75.8467 186.656 79.1937 185.533 81.5097C184.41 83.8256 183.189 87.1552 182.821 88.9081C182.452 90.6616 182.151 94.1415 182.151 96.6416C182.151 99.1416 182.577 102.834 183.1 104.847C183.622 106.86 184.604 109.606 185.281 110.949C185.958 112.293 187.463 114.944 188.626 116.841C190.349 119.652 190.79 121.043 191.011 124.36C191.244 127.847 191.072 128.818 189.812 131.137C189.004 132.626 187.364 135.621 186.169 137.793C184.973 139.965 183.584 143.484 183.081 145.613C182.579 147.742 182.169 151.515 182.169 153.996C182.169 156.477 182.579 160.25 183.081 162.379C183.584 164.508 184.973 168.027 186.169 170.199C187.364 172.371 189.004 175.366 189.812 176.855C191.072 179.174 191.244 180.145 191.011 183.632C190.79 186.949 190.349 188.34 188.626 191.151C187.463 193.049 185.958 195.7 185.281 197.043C184.604 198.386 183.622 201.132 183.1 203.145C182.577 205.158 182.151 208.851 182.151 211.351C182.151 213.851 182.455 217.331 182.826 219.084C183.197 220.837 184.285 223.896 185.244 225.881C186.203 227.866 187.932 231.206 189.086 233.302C190.653 236.152 191.183 237.839 191.183 239.98C191.183 241.556 190.864 243.758 190.475 244.873C190.086 245.988 188.736 248.545 187.474 250.555C186.213 252.564 184.606 255.821 183.902 257.791C183.068 260.126 182.515 263.466 182.314 267.391C182.085 271.87 182.262 274.411 183.007 277.317C183.557 279.466 184.657 282.64 185.45 284.372L186.892 287.52L97.0588 287.68C10.637 287.834 7.1397 287.883 4.9557 288.967C3.70744 289.587 2.08163 290.941 1.3428 291.975C0.260731 293.49 0 294.674 0 298.067C0 301.308 0.269161 302.632 1.16998 303.816C1.81368 304.661 3.03303 305.88 3.87966 306.523C5.39226 307.671 7.76834 307.694 138.55 307.846L271.681 308L273.733 306.638C274.862 305.889 276.394 304.07 277.14 302.596C277.885 301.123 278.495 299.084 278.495 298.067C278.495 297.049 277.885 295.011 277.14 293.537C276.394 292.063 274.903 290.273 273.826 289.558C272.694 288.807 270.346 288.082 268.26 287.84L264.653 287.422L264.498 146.763L264.344 6.1039L263.084 4.40513C262.391 3.47093 260.929 2.0976 259.834 1.35348L257.843 0H230.925H204.006L201.96 1.37333ZM244.172 153.695V287.54H228.272H212.372L208.186 281.674C205.883 278.449 203.69 274.889 203.312 273.765C202.933 272.64 202.624 270.445 202.624 268.887C202.624 266.867 203.166 265.036 204.51 262.51C205.548 260.561 207.171 257.477 208.115 255.658C209.059 253.838 210.272 250.604 210.809 248.471C211.503 245.718 211.709 242.925 211.519 238.846C211.345 235.115 210.792 231.785 209.946 229.353C209.228 227.292 207.387 223.576 205.854 221.094C203.429 217.169 203.031 216.053 202.787 212.509C202.533 208.801 202.674 208.14 204.37 205.128C205.394 203.308 207.151 199.924 208.274 197.608C209.397 195.292 210.617 191.963 210.986 190.21C211.354 188.456 211.652 185.073 211.647 182.69C211.642 180.308 211.227 176.617 210.725 174.487C210.222 172.358 208.833 168.839 207.638 166.667C206.443 164.495 204.825 161.522 204.044 160.06C203.033 158.167 202.624 156.422 202.624 153.996C202.624 151.571 203.033 149.826 204.044 147.932C204.825 146.47 206.443 143.497 207.638 141.325C208.833 139.153 210.222 135.634 210.725 133.505C211.227 131.376 211.642 127.684 211.647 125.302C211.652 122.92 211.354 119.536 210.986 117.782C210.617 116.029 209.397 112.7 208.274 110.384C207.151 108.068 205.394 104.684 204.37 102.865C202.674 99.8526 202.533 99.1909 202.787 95.486C203.014 92.1787 203.462 90.7699 205.18 87.9667C206.343 86.0694 207.87 83.3757 208.575 81.9795C209.279 80.5839 210.256 77.7416 210.746 75.6632C211.237 73.5855 211.642 69.8438 211.647 67.3492C211.652 64.8546 211.245 61.2002 210.741 59.2283C210.238 57.2565 209.055 54.1543 208.112 52.3346C207.169 50.5149 205.527 47.4019 204.462 45.4168C202.773 42.2665 202.555 41.3467 202.745 38.1862C202.87 36.1277 203.476 33.6042 204.149 32.3398C204.8 31.1162 207.03 27.8059 209.105 24.9835L212.875 19.8511H228.524H244.172V153.695ZM93.9806 63.924C92.5072 64.762 91.0897 66.2664 90.2172 67.9189C89.4471 69.377 88.8172 71.3483 88.8172 72.2994C88.8172 73.251 89.2225 74.9985 89.718 76.1836C90.2136 77.368 92.4656 80.4052 94.7225 82.9317C96.9794 85.4582 100.052 89.1493 101.551 91.1344C103.05 93.1195 105.267 96.3029 106.478 98.208C107.689 100.114 109.801 103.9 111.171 106.622C112.541 109.344 114.57 113.919 115.679 116.789C116.789 119.659 118.379 124.632 119.214 127.841C120.048 131.051 121.138 136.773 121.634 140.559C122.131 144.344 122.538 150.39 122.538 153.996C122.538 157.602 122.131 163.649 121.634 167.433C121.138 171.219 120.048 176.942 119.214 180.151C118.379 183.36 116.789 188.334 115.679 191.204C114.57 194.073 112.541 198.648 111.171 201.37C109.801 204.092 107.689 207.878 106.478 209.784C105.267 211.689 103.044 214.873 101.538 216.858C100.033 218.843 96.721 222.833 94.1782 225.725C90.953 229.393 89.4326 231.637 89.1496 233.144C88.9262 234.333 88.925 236.163 89.1466 237.211C89.3682 238.258 90.0896 240.003 90.7495 241.089C91.4095 242.174 92.9949 243.595 94.2733 244.247C95.5517 244.898 97.7188 245.431 99.0893 245.431C100.46 245.431 102.509 244.992 103.642 244.454C104.775 243.917 107.501 241.548 109.699 239.191C111.897 236.833 115.619 232.333 117.97 229.189C120.321 226.046 123.804 220.863 125.709 217.672C127.614 214.481 130.149 209.744 131.342 207.145C132.535 204.547 134.449 199.849 135.596 196.706C136.742 193.563 138.457 187.819 139.405 183.942C140.353 180.064 141.587 173.297 142.147 168.903C142.913 162.897 143.086 158.301 142.846 150.387C142.645 143.76 142.064 137.244 141.275 132.801C140.587 128.919 139.345 123.333 138.516 120.387C137.688 117.442 136.22 112.903 135.255 110.302C134.29 107.7 132.539 103.471 131.362 100.903C130.186 98.3355 127.731 93.7012 125.907 90.605C124.083 87.5089 120.59 82.3007 118.143 79.0319C115.697 75.7625 111.829 71.0854 109.548 68.6383C107.267 66.1912 104.523 63.8224 103.451 63.3748C102.378 62.9273 100.341 62.5651 98.9225 62.5705C97.3768 62.5766 95.3975 63.1185 93.9806 63.924ZM62.9067 98.2026C61.4314 98.9473 59.6195 100.466 58.8795 101.578C58.14 102.691 57.3578 104.544 57.1411 105.697C56.9243 106.85 57.0544 108.817 57.4295 110.068C57.8046 111.319 59.6448 114.059 61.5193 116.157C63.3932 118.255 66.1216 121.817 67.5818 124.072C69.0414 126.327 70.996 130.012 71.9245 132.262C72.853 134.511 74.1175 138.224 74.7341 140.512C75.6006 143.726 75.8553 146.793 75.8553 153.996C75.8553 161.199 75.6006 164.266 74.7341 167.48C74.1175 169.768 72.853 173.481 71.9245 175.73C70.996 177.98 69.0414 181.665 67.5818 183.92C66.1216 186.175 63.3932 189.737 61.5193 191.835C59.6448 193.933 57.8046 196.673 57.4295 197.925C57.0544 199.175 56.9243 201.142 57.1411 202.296C57.3578 203.448 58.14 205.301 58.8795 206.414C59.6195 207.526 61.4422 209.062 62.9296 209.828C65.0491 210.919 66.2203 211.145 68.3411 210.872C69.8296 210.681 71.8895 209.919 72.9186 209.18C73.9477 208.44 76.2226 206.21 77.9737 204.225C79.7247 202.24 82.6211 198.391 84.4107 195.672C86.2003 192.953 88.5781 188.725 89.6951 186.276C90.8121 183.827 92.4283 179.602 93.2876 176.886C94.1462 174.17 95.2518 169.465 95.7443 166.431C96.2375 163.396 96.6404 157.801 96.6404 153.996C96.6404 150.191 96.2375 144.596 95.7443 141.561C95.2518 138.527 94.1462 133.822 93.2876 131.106C92.4283 128.39 90.7886 124.114 89.6434 121.602C88.4981 119.091 85.8269 114.457 83.7074 111.304C81.5884 108.151 78.2362 103.899 76.2588 101.855C73.8213 99.3347 71.9197 97.9313 70.3535 97.497C69.0829 97.1445 67.4908 96.8545 66.8158 96.8527C66.1408 96.8509 64.3819 97.4579 62.9067 98.2026ZM33.6903 128.976C32.6805 129.415 31.1228 130.643 30.228 131.706C29.3338 132.768 28.4335 134.307 28.2276 135.126C28.0217 135.946 27.9807 137.945 28.1373 139.569C28.3607 141.894 28.9845 143.251 31.071 145.953C33.6735 149.323 33.7204 149.466 33.7204 153.996C33.7204 158.541 33.6813 158.659 31.0108 162.117C28.4131 165.481 28.3011 165.794 28.3011 169.692C28.3011 172.861 28.5751 174.126 29.5427 175.42C30.2255 176.334 31.4816 177.601 32.3343 178.237C33.1863 178.873 35.1024 179.531 36.5909 179.698C38.08 179.866 40.267 179.683 41.4514 179.293C42.7196 178.875 44.8349 177.239 46.5968 175.313C48.2425 173.514 50.3025 170.586 51.1744 168.806C52.0463 167.025 53.1464 164.115 53.6197 162.339C54.093 160.563 54.4802 156.808 54.4802 153.996C54.4802 151.184 54.093 147.43 53.6197 145.653C53.1464 143.877 52.0535 140.983 51.1912 139.221C50.3283 137.46 48.3557 134.611 46.807 132.89C45.2582 131.169 43.111 129.394 42.0361 128.945C40.9613 128.497 39.0567 128.14 37.8042 128.153C36.5517 128.166 34.7007 128.536 33.6903 128.976ZM296.144 288.216C294.756 288.464 292.932 289.119 292.09 289.67C291.248 290.221 289.997 291.58 289.31 292.691C288.492 294.013 288.053 295.757 288.037 297.741C288.02 299.938 288.437 301.495 289.556 303.401C290.474 304.967 291.935 306.428 293.167 307.012C294.305 307.551 296.577 307.992 298.217 307.992C300.321 307.992 301.796 307.59 303.23 306.624C304.347 305.872 305.878 304.343 306.631 303.227C307.597 301.794 308 300.321 308 298.219C308 296.581 307.56 294.315 307.023 293.183C306.485 292.051 305.333 290.62 304.464 290.002C303.593 289.385 301.933 288.628 300.774 288.322C299.615 288.015 297.532 287.967 296.144 288.216Z"/>
</mask>
<path fill-rule="evenodd" clip-rule="evenodd" d="M201.96 1.37333C200.835 2.12888 197.137 6.52739 193.743 11.1485C190.348 15.7696 186.762 21.1745 185.774 23.1596C184.786 25.1447 183.534 28.5266 182.992 30.6753C182.27 33.5314 182.084 36.1993 182.299 40.6008C182.518 45.0926 182.985 47.6419 184.139 50.6485C184.989 52.864 186.603 56.1123 187.724 57.867C188.845 59.6212 190.082 61.9774 190.473 63.1017C190.863 64.2266 191.183 66.4289 191.183 67.9959C191.183 70.0418 190.674 71.755 189.379 74.0721C188.386 75.8467 186.656 79.1937 185.533 81.5097C184.41 83.8256 183.189 87.1552 182.821 88.9081C182.452 90.6616 182.151 94.1415 182.151 96.6416C182.151 99.1416 182.577 102.834 183.1 104.847C183.622 106.86 184.604 109.606 185.281 110.949C185.958 112.293 187.463 114.944 188.626 116.841C190.349 119.652 190.79 121.043 191.011 124.36C191.244 127.847 191.072 128.818 189.812 131.137C189.004 132.626 187.364 135.621 186.169 137.793C184.973 139.965 183.584 143.484 183.081 145.613C182.579 147.742 182.169 151.515 182.169 153.996C182.169 156.477 182.579 160.25 183.081 162.379C183.584 164.508 184.973 168.027 186.169 170.199C187.364 172.371 189.004 175.366 189.812 176.855C191.072 179.174 191.244 180.145 191.011 183.632C190.79 186.949 190.349 188.34 188.626 191.151C187.463 193.049 185.958 195.7 185.281 197.043C184.604 198.386 183.622 201.132 183.1 203.145C182.577 205.158 182.151 208.851 182.151 211.351C182.151 213.851 182.455 217.331 182.826 219.084C183.197 220.837 184.285 223.896 185.244 225.881C186.203 227.866 187.932 231.206 189.086 233.302C190.653 236.152 191.183 237.839 191.183 239.98C191.183 241.556 190.864 243.758 190.475 244.873C190.086 245.988 188.736 248.545 187.474 250.555C186.213 252.564 184.606 255.821 183.902 257.791C183.068 260.126 182.515 263.466 182.314 267.391C182.085 271.87 182.262 274.411 183.007 277.317C183.557 279.466 184.657 282.64 185.45 284.372L186.892 287.52L97.0588 287.68C10.637 287.834 7.1397 287.883 4.9557 288.967C3.70744 289.587 2.08163 290.941 1.3428 291.975C0.260731 293.49 0 294.674 0 298.067C0 301.308 0.269161 302.632 1.16998 303.816C1.81368 304.661 3.03303 305.88 3.87966 306.523C5.39226 307.671 7.76834 307.694 138.55 307.846L271.681 308L273.733 306.638C274.862 305.889 276.394 304.07 277.14 302.596C277.885 301.123 278.495 299.084 278.495 298.067C278.495 297.049 277.885 295.011 277.14 293.537C276.394 292.063 274.903 290.273 273.826 289.558C272.694 288.807 270.346 288.082 268.26 287.84L264.653 287.422L264.498 146.763L264.344 6.1039L263.084 4.40513C262.391 3.47093 260.929 2.0976 259.834 1.35348L257.843 0H230.925H204.006L201.96 1.37333ZM244.172 153.695V287.54H228.272H212.372L208.186 281.674C205.883 278.449 203.69 274.889 203.312 273.765C202.933 272.64 202.624 270.445 202.624 268.887C202.624 266.867 203.166 265.036 204.51 262.51C205.548 260.561 207.171 257.477 208.115 255.658C209.059 253.838 210.272 250.604 210.809 248.471C211.503 245.718 211.709 242.925 211.519 238.846C211.345 235.115 210.792 231.785 209.946 229.353C209.228 227.292 207.387 223.576 205.854 221.094C203.429 217.169 203.031 216.053 202.787 212.509C202.533 208.801 202.674 208.14 204.37 205.128C205.394 203.308 207.151 199.924 208.274 197.608C209.397 195.292 210.617 191.963 210.986 190.21C211.354 188.456 211.652 185.073 211.647 182.69C211.642 180.308 211.227 176.617 210.725 174.487C210.222 172.358 208.833 168.839 207.638 166.667C206.443 164.495 204.825 161.522 204.044 160.06C203.033 158.167 202.624 156.422 202.624 153.996C202.624 151.571 203.033 149.826 204.044 147.932C204.825 146.47 206.443 143.497 207.638 141.325C208.833 139.153 210.222 135.634 210.725 133.505C211.227 131.376 211.642 127.684 211.647 125.302C211.652 122.92 211.354 119.536 210.986 117.782C210.617 116.029 209.397 112.7 208.274 110.384C207.151 108.068 205.394 104.684 204.37 102.865C202.674 99.8526 202.533 99.1909 202.787 95.486C203.014 92.1787 203.462 90.7699 205.18 87.9667C206.343 86.0694 207.87 83.3757 208.575 81.9795C209.279 80.5839 210.256 77.7416 210.746 75.6632C211.237 73.5855 211.642 69.8438 211.647 67.3492C211.652 64.8546 211.245 61.2002 210.741 59.2283C210.238 57.2565 209.055 54.1543 208.112 52.3346C207.169 50.5149 205.527 47.4019 204.462 45.4168C202.773 42.2665 202.555 41.3467 202.745 38.1862C202.87 36.1277 203.476 33.6042 204.149 32.3398C204.8 31.1162 207.03 27.8059 209.105 24.9835L212.875 19.8511H228.524H244.172V153.695ZM93.9806 63.924C92.5072 64.762 91.0897 66.2664 90.2172 67.9189C89.4471 69.377 88.8172 71.3483 88.8172 72.2994C88.8172 73.251 89.2225 74.9985 89.718 76.1836C90.2136 77.368 92.4656 80.4052 94.7225 82.9317C96.9794 85.4582 100.052 89.1493 101.551 91.1344C103.05 93.1195 105.267 96.3029 106.478 98.208C107.689 100.114 109.801 103.9 111.171 106.622C112.541 109.344 114.57 113.919 115.679 116.789C116.789 119.659 118.379 124.632 119.214 127.841C120.048 131.051 121.138 136.773 121.634 140.559C122.131 144.344 122.538 150.39 122.538 153.996C122.538 157.602 122.131 163.649 121.634 167.433C121.138 171.219 120.048 176.942 119.214 180.151C118.379 183.36 116.789 188.334 115.679 191.204C114.57 194.073 112.541 198.648 111.171 201.37C109.801 204.092 107.689 207.878 106.478 209.784C105.267 211.689 103.044 214.873 101.538 216.858C100.033 218.843 96.721 222.833 94.1782 225.725C90.953 229.393 89.4326 231.637 89.1496 233.144C88.9262 234.333 88.925 236.163 89.1466 237.211C89.3682 238.258 90.0896 240.003 90.7495 241.089C91.4095 242.174 92.9949 243.595 94.2733 244.247C95.5517 244.898 97.7188 245.431 99.0893 245.431C100.46 245.431 102.509 244.992 103.642 244.454C104.775 243.917 107.501 241.548 109.699 239.191C111.897 236.833 115.619 232.333 117.97 229.189C120.321 226.046 123.804 220.863 125.709 217.672C127.614 214.481 130.149 209.744 131.342 207.145C132.535 204.547 134.449 199.849 135.596 196.706C136.742 193.563 138.457 187.819 139.405 183.942C140.353 180.064 141.587 173.297 142.147 168.903C142.913 162.897 143.086 158.301 142.846 150.387C142.645 143.76 142.064 137.244 141.275 132.801C140.587 128.919 139.345 123.333 138.516 120.387C137.688 117.442 136.22 112.903 135.255 110.302C134.29 107.7 132.539 103.471 131.362 100.903C130.186 98.3355 127.731 93.7012 125.907 90.605C124.083 87.5089 120.59 82.3007 118.143 79.0319C115.697 75.7625 111.829 71.0854 109.548 68.6383C107.267 66.1912 104.523 63.8224 103.451 63.3748C102.378 62.9273 100.341 62.5651 98.9225 62.5705C97.3768 62.5766 95.3975 63.1185 93.9806 63.924ZM62.9067 98.2026C61.4314 98.9473 59.6195 100.466 58.8795 101.578C58.14 102.691 57.3578 104.544 57.1411 105.697C56.9243 106.85 57.0544 108.817 57.4295 110.068C57.8046 111.319 59.6448 114.059 61.5193 116.157C63.3932 118.255 66.1216 121.817 67.5818 124.072C69.0414 126.327 70.996 130.012 71.9245 132.262C72.853 134.511 74.1175 138.224 74.7341 140.512C75.6006 143.726 75.8553 146.793 75.8553 153.996C75.8553 161.199 75.6006 164.266 74.7341 167.48C74.1175 169.768 72.853 173.481 71.9245 175.73C70.996 177.98 69.0414 181.665 67.5818 183.92C66.1216 186.175 63.3932 189.737 61.5193 191.835C59.6448 193.933 57.8046 196.673 57.4295 197.925C57.0544 199.175 56.9243 201.142 57.1411 202.296C57.3578 203.448 58.14 205.301 58.8795 206.414C59.6195 207.526 61.4422 209.062 62.9296 209.828C65.0491 210.919 66.2203 211.145 68.3411 210.872C69.8296 210.681 71.8895 209.919 72.9186 209.18C73.9477 208.44 76.2226 206.21 77.9737 204.225C79.7247 202.24 82.6211 198.391 84.4107 195.672C86.2003 192.953 88.5781 188.725 89.6951 186.276C90.8121 183.827 92.4283 179.602 93.2876 176.886C94.1462 174.17 95.2518 169.465 95.7443 166.431C96.2375 163.396 96.6404 157.801 96.6404 153.996C96.6404 150.191 96.2375 144.596 95.7443 141.561C95.2518 138.527 94.1462 133.822 93.2876 131.106C92.4283 128.39 90.7886 124.114 89.6434 121.602C88.4981 119.091 85.8269 114.457 83.7074 111.304C81.5884 108.151 78.2362 103.899 76.2588 101.855C73.8213 99.3347 71.9197 97.9313 70.3535 97.497C69.0829 97.1445 67.4908 96.8545 66.8158 96.8527C66.1408 96.8509 64.3819 97.4579 62.9067 98.2026ZM33.6903 128.976C32.6805 129.415 31.1228 130.643 30.228 131.706C29.3338 132.768 28.4335 134.307 28.2276 135.126C28.0217 135.946 27.9807 137.945 28.1373 139.569C28.3607 141.894 28.9845 143.251 31.071 145.953C33.6735 149.323 33.7204 149.466 33.7204 153.996C33.7204 158.541 33.6813 158.659 31.0108 162.117C28.4131 165.481 28.3011 165.794 28.3011 169.692C28.3011 172.861 28.5751 174.126 29.5427 175.42C30.2255 176.334 31.4816 177.601 32.3343 178.237C33.1863 178.873 35.1024 179.531 36.5909 179.698C38.08 179.866 40.267 179.683 41.4514 179.293C42.7196 178.875 44.8349 177.239 46.5968 175.313C48.2425 173.514 50.3025 170.586 51.1744 168.806C52.0463 167.025 53.1464 164.115 53.6197 162.339C54.093 160.563 54.4802 156.808 54.4802 153.996C54.4802 151.184 54.093 147.43 53.6197 145.653C53.1464 143.877 52.0535 140.983 51.1912 139.221C50.3283 137.46 48.3557 134.611 46.807 132.89C45.2582 131.169 43.111 129.394 42.0361 128.945C40.9613 128.497 39.0567 128.14 37.8042 128.153C36.5517 128.166 34.7007 128.536 33.6903 128.976ZM296.144 288.216C294.756 288.464 292.932 289.119 292.09 289.67C291.248 290.221 289.997 291.58 289.31 292.691C288.492 294.013 288.053 295.757 288.037 297.741C288.02 299.938 288.437 301.495 289.556 303.401C290.474 304.967 291.935 306.428 293.167 307.012C294.305 307.551 296.577 307.992 298.217 307.992C300.321 307.992 301.796 307.59 303.23 306.624C304.347 305.872 305.878 304.343 306.631 303.227C307.597 301.794 308 300.321 308 298.219C308 296.581 307.56 294.315 307.023 293.183C306.485 292.051 305.333 290.62 304.464 290.002C303.593 289.385 301.933 288.628 300.774 288.322C299.615 288.015 297.532 287.967 296.144 288.216Z" fill="#F5F5F6" stroke="#DFDEE2" stroke-width="4" mask="url(#path-1-inside-1_423_10834)"/>
</g>
</svg>
