<svg width="223" height="223" viewBox="0 0 223 223" fill="none" xmlns="http://www.w3.org/2000/svg">
<g opacity="0.6">
<path d="M9.29167 195.125V27.8751C9.29167 22.9465 11.2496 18.2197 14.7346 14.7347C18.2197 11.2496 22.9464 9.29175 27.875 9.29175H195.125C200.054 9.29175 204.78 11.2496 208.265 14.7347C211.75 18.2197 213.708 22.9465 213.708 27.8751V195.125C213.708 200.054 211.75 204.78 208.265 208.265C204.78 211.751 200.054 213.708 195.125 213.708H27.875C22.9464 213.708 18.2197 211.751 14.7346 208.265C11.2496 204.78 9.29167 200.054 9.29167 195.125Z" stroke="#F5F5F6" stroke-width="10"/>
<path d="M139.375 65.0418H176.542M139.375 144.021H176.542M139.375 171.896H176.542M46.4583 65.0418H65.0417M83.625 65.0418H65.0417M65.0417 65.0418V46.4585M65.0417 65.0418V83.6252M51.9033 171.097L65.0417 157.958M78.1894 144.82L65.0417 157.958M65.0417 157.958L51.9033 144.82M65.0417 157.958L78.1894 171.097" stroke="#F5F5F6" stroke-width="10" stroke-linecap="round" stroke-linejoin="round"/>
</g>
</svg>
