<svg width="222" height="222" viewBox="0 0 222 222" fill="none" xmlns="http://www.w3.org/2000/svg">
<g opacity="0.6">
<path d="M201.188 173.438H187.312V159.562H194.25V131.812H166.5V138.75H152.625V124.875C152.625 123.035 153.356 121.27 154.657 119.969C155.958 118.668 157.723 117.938 159.562 117.938H201.188C203.027 117.938 204.792 118.668 206.093 119.969C207.394 121.27 208.125 123.035 208.125 124.875V166.5C208.125 168.34 207.394 170.105 206.093 171.406C204.792 172.707 203.027 173.438 201.188 173.438Z" fill="#F5F5F6"/>
<path d="M166.5 208.125H124.875C123.035 208.125 121.27 207.394 119.969 206.093C118.668 204.792 117.938 203.027 117.938 201.187V159.562C117.938 157.723 118.668 155.958 119.969 154.657C121.27 153.356 123.035 152.625 124.875 152.625H166.5C168.34 152.625 170.105 153.356 171.406 154.657C172.707 155.958 173.438 157.723 173.438 159.562V201.187C173.438 203.027 172.707 204.792 171.406 206.093C170.105 207.394 168.34 208.125 166.5 208.125ZM131.813 194.25H159.563V166.5H131.813V194.25ZM104.063 137.765C99.0498 136.458 94.5038 133.773 90.9407 130.012C87.3777 126.252 84.9403 121.568 83.9055 116.493C82.8707 111.417 83.2798 106.153 85.0865 101.298C86.8931 96.4427 90.0249 92.1916 94.1261 89.0271C98.2273 85.8626 103.134 83.9114 108.288 83.3952C113.443 82.879 118.638 83.8184 123.286 86.1068C127.933 88.3951 131.846 91.9408 134.579 96.341C137.313 100.741 138.758 105.82 138.75 111H152.625C152.633 103.062 150.371 95.2875 146.106 88.5927C141.841 81.898 135.751 76.5624 128.553 73.215C121.356 69.8675 113.351 68.648 105.483 69.7C97.6155 70.752 90.2126 74.0318 84.1473 79.1526C78.0821 84.2733 73.6075 91.0216 71.2512 98.6017C68.8949 106.182 68.7552 114.278 70.8484 121.934C72.9416 129.591 77.1806 136.49 83.0655 141.817C88.9503 147.144 96.2357 150.678 104.063 152.001V137.765Z" fill="#F5F5F6"/>
<path d="M200.424 94.0031L184.399 108.086L174.548 98.235L191.267 83.5275L174.894 55.2225L151.029 63.27C145.439 58.6168 139.107 54.935 132.298 52.3781L127.373 27.75H94.6275L89.7019 52.3781C82.8379 54.8635 76.4716 58.5518 70.9013 63.27L47.1056 55.2225L30.7331 83.5275L49.6031 100.108C48.3196 107.289 48.3196 114.641 49.6031 121.822L30.7331 138.472L47.1056 166.778L70.9706 158.73C76.5609 163.383 82.8926 167.065 89.7019 169.622L94.6275 194.25H104.062V208.125H94.6275C91.4191 208.122 88.3108 207.008 85.8316 204.972C83.3524 202.935 81.6556 200.102 81.03 196.956L77.4919 179.473C74.351 177.941 71.315 176.203 68.4037 174.27L51.5456 179.959C50.1121 180.425 48.6131 180.659 47.1056 180.653C44.6687 180.669 42.2714 180.035 40.1615 178.816C38.0516 177.596 36.3055 175.835 35.1038 173.715L18.7313 145.41C17.112 142.628 16.5102 139.37 17.0291 136.193C17.548 133.016 19.1553 130.119 21.5756 127.997L34.8956 116.342C34.7569 114.538 34.6875 112.804 34.6875 111C34.6875 109.196 34.8263 107.462 34.965 105.728L21.5756 94.0031C19.1553 91.8811 17.548 88.9836 17.0291 85.8069C16.5102 82.6302 17.112 79.3719 18.7313 76.59L35.1038 48.285C36.3055 46.1649 38.0516 44.4041 40.1615 43.1845C42.2714 41.9649 44.6687 41.3307 47.1056 41.3475C48.6131 41.3406 50.1121 41.5748 51.5456 42.0413L68.3344 47.73C71.2694 45.7965 74.3285 44.0584 77.4919 42.5269L81.03 25.0444C81.6556 21.8976 83.3524 19.0649 85.8316 17.0284C88.3108 14.9919 91.4191 13.8776 94.6275 13.875H127.373C130.581 13.8776 133.689 14.9919 136.168 17.0284C138.648 19.0649 140.344 21.8976 140.97 25.0444L144.508 42.5269C147.649 44.0588 150.685 45.797 153.596 47.73L170.454 42.0413C171.888 41.5748 173.387 41.3406 174.894 41.3475C177.331 41.3307 179.729 41.9649 181.839 43.1845C183.948 44.4041 185.694 46.1649 186.896 48.285L203.269 76.59C204.888 79.3719 205.49 82.6302 204.971 85.8069C204.452 88.9836 202.845 91.8811 200.424 94.0031Z" fill="#F5F5F6"/>
</g>
</svg>
