<svg width="118" height="54" viewBox="0 0 118 54" fill="none" xmlns="http://www.w3.org/2000/svg">
<path fill-rule="evenodd" clip-rule="evenodd" d="M63.6826 0H118V54H63.6826V39.569H67.4286V50.2759H114.254V3.72414H67.4286V14.431H63.6826V0Z" fill="black"/>
<path d="M0 14.4689H4.5276V32.2412H10.6346V14.4689H15.1472V32.2412H21.194V14.4689H25.6915V35.6444H0V14.4689Z" fill="#F1752A"/>
<path d="M34.1149 33.8701L38.432 19.9082H43.0799L36.5367 38.015C36.3963 38.4126 36.2058 38.8392 35.9651 39.2949C35.7344 39.7506 35.4186 40.182 35.0175 40.5893C34.6264 41.0062 34.13 41.3455 33.5283 41.6073C32.9367 41.8691 32.2096 42 31.3472 42C30.9361 42 30.6002 41.9758 30.3394 41.9273C30.0787 41.8788 29.7678 41.8109 29.4068 41.7237V38.655C29.5171 38.655 29.6325 38.655 29.7528 38.655C29.8731 38.6647 29.9885 38.6695 30.0988 38.6695C30.6704 38.6695 31.1367 38.6065 31.4977 38.4804C31.8587 38.3544 32.1495 38.1605 32.3701 37.8987C32.5907 37.6466 32.7662 37.3169 32.8965 36.9097L34.1149 33.8701ZM32.3099 19.9082L35.8448 31.3104L36.4615 35.7462L33.5133 36.0517L27.662 19.9082H32.3099Z" fill="#F1752A"/>
<path d="M54.7072 30.8305L58.9791 19.9082H62.514L56.1663 35.6444H53.2482L46.9306 19.9082H50.4654L54.7072 30.8305ZM49.4276 19.9082V35.6444H45.0955V19.9082H49.4276ZM60.0922 35.6444V19.9082H64.4243V35.6444H60.0922Z" fill="#F1752A"/>
<path d="M67.5229 27.9363V27.6309C67.5229 26.4771 67.6934 25.4154 68.0343 24.4458C68.3753 23.4666 68.8717 22.6182 69.5235 21.9007C70.1753 21.1832 70.9775 20.6257 71.9302 20.2282C72.8828 19.821 73.9759 19.6174 75.2093 19.6174C76.4427 19.6174 77.5408 19.821 78.5035 20.2282C79.4661 20.6257 80.2734 21.1832 80.9252 21.9007C81.5871 22.6182 82.0885 23.4666 82.4294 24.4458C82.7703 25.4154 82.9408 26.4771 82.9408 27.6309V27.9363C82.9408 29.0804 82.7703 30.1421 82.4294 31.1214C82.0885 32.0909 81.5871 32.9393 80.9252 33.6665C80.2734 34.384 79.4712 34.9415 78.5185 35.339C77.5659 35.7365 76.4728 35.9353 75.2394 35.9353C74.006 35.9353 72.9079 35.7365 71.9452 35.339C70.9926 34.9415 70.1853 34.384 69.5235 33.6665C68.8717 32.9393 68.3753 32.0909 68.0343 31.1214C67.6934 30.1421 67.5229 29.0804 67.5229 27.9363ZM71.855 27.6309V27.9363C71.855 28.5956 71.9151 29.2113 72.0355 29.7833C72.1558 30.3554 72.3463 30.8596 72.6071 31.2959C72.8778 31.7225 73.2288 32.057 73.66 32.2994C74.0912 32.5418 74.6177 32.663 75.2394 32.663C75.8411 32.663 76.3575 32.5418 76.7887 32.2994C77.2199 32.057 77.5659 31.7225 77.8266 31.2959C78.0873 30.8596 78.2778 30.3554 78.3982 29.7833C78.5285 29.2113 78.5937 28.5956 78.5937 27.9363V27.6309C78.5937 26.991 78.5285 26.3898 78.3982 25.8275C78.2778 25.2554 78.0823 24.7513 77.8116 24.3149C77.5508 23.8689 77.2049 23.5199 76.7737 23.2678C76.3425 23.0157 75.821 22.8897 75.2093 22.8897C74.5976 22.8897 74.0761 23.0157 73.645 23.2678C73.2238 23.5199 72.8778 23.8689 72.6071 24.3149C72.3463 24.7513 72.1558 25.2554 72.0355 25.8275C71.9151 26.3898 71.855 26.991 71.855 27.6309Z" fill="#F1752A"/>
<path d="M91.1236 35.6444H86.7615V18.512C86.7615 17.3195 87.0021 16.3159 87.4835 15.5015C87.9748 14.6774 88.6617 14.0568 89.5442 13.6399C90.4367 13.2133 91.4946 13 92.718 13C93.1191 13 93.5052 13.0291 93.8763 13.0873C94.2473 13.1357 94.6083 13.1988 94.9593 13.2763L94.9141 16.4323C94.7236 16.3838 94.523 16.3499 94.3125 16.3305C94.1019 16.3111 93.8562 16.3014 93.5754 16.3014C93.054 16.3014 92.6077 16.3887 92.2367 16.5632C91.8757 16.728 91.5999 16.9753 91.4094 17.3049C91.2189 17.6346 91.1236 18.0369 91.1236 18.512V35.6444ZM94.3726 19.9082V22.8751H84.3397V19.9082H94.3726Z" fill="#F1752A"/>
<path d="M102.164 35.6444H97.8022V18.512C97.8022 17.3195 98.0429 16.3159 98.5242 15.5015C99.0156 14.6774 99.7025 14.0568 100.585 13.6399C101.477 13.2133 102.535 13 103.759 13C104.16 13 104.546 13.0291 104.917 13.0873C105.288 13.1357 105.649 13.1988 106 13.2763L105.955 16.4323C105.764 16.3838 105.564 16.3499 105.353 16.3305C105.143 16.3111 104.897 16.3014 104.616 16.3014C104.095 16.3014 103.648 16.3887 103.277 16.5632C102.916 16.728 102.641 16.9753 102.45 17.3049C102.26 17.6346 102.164 18.0369 102.164 18.512V35.6444ZM105.413 19.9082V22.8751H95.3804V19.9082H105.413Z" fill="#F1752A"/>
</svg>
