<svg width="66" height="18" viewBox="0 0 66 18" fill="none" xmlns="http://www.w3.org/2000/svg">
<g clip-path="url(#clip0_482_351)">
<path d="M62.9248 15.6736C64.2196 15.6736 65.1368 15.4528 65.8202 14.9773V12.8207C65.1188 13.2792 64.2736 13.5679 63.0867 13.5679C61.0905 13.5679 60.2632 12.1075 60.2632 9.79809C60.2632 7.36979 61.2703 6.13017 63.1046 6.13017C64.1837 6.13017 65.2447 6.48677 65.8022 6.8264V4.58489C65.2087 4.27923 64.1837 4.05847 62.7809 4.05847C59.2022 4.05847 57.3499 6.48677 57.3499 9.883C57.3679 13.6019 59.1842 15.6736 62.9248 15.6736ZM45.4267 14.6887V12.5321C44.5635 13.0924 43.0888 13.5849 41.7401 13.5849C39.6899 13.5849 38.9166 12.6679 38.7907 10.8H45.5526V9.40753C45.5526 5.51885 43.7362 4.05847 40.9488 4.05847C37.5319 4.05847 35.9134 6.52074 35.9134 9.89998C35.9134 13.7887 37.9455 15.6736 41.5063 15.6736C43.2867 15.6736 44.5995 15.2151 45.4267 14.6887ZM19.764 4.26225V8.67734H16.0234V4.26225H13.218V15.4528H16.0234V10.783H19.764V15.4528H22.5695V4.26225H19.764ZM35.212 13.3472H33.9711V4.26225H25.8065V5.21319C25.8065 7.94715 25.6267 11.4792 24.6376 13.3472H23.7384V18H26.3281V15.4528H32.6044V18H35.194V13.3472H35.212ZM54.3646 15.4528H57.5477L53.0518 9.42451L57.0082 4.26225H54.1847L50.2283 9.42451V4.26225H47.4229V15.4528H50.2283V9.95092L54.3646 15.4528ZM40.8768 6.13017C42.2616 6.13017 42.6932 7.21696 42.6932 8.6264V8.84715H38.7907C38.8627 7.06413 39.5461 6.13017 40.8768 6.13017ZM31.1657 13.3472H27.2093C27.9826 11.666 28.1984 8.60942 28.1984 6.67357V6.33394H31.1657V13.3472Z" fill="black"/>
<path d="M10.8801 15.4528H8.02071V2.08868H6.74387C4.40599 2.08868 3.18311 3.19245 3.18311 4.83962C3.18311 6.70755 4.02834 7.57358 5.77275 8.67736L7.21144 9.59434L3.0752 15.4528H0L3.72262 10.2226C1.58256 8.77924 0.377657 7.36981 0.377657 4.99245C0.377657 2.02075 2.57166 0 6.72589 0H10.8621V15.4528H10.8801Z" fill="#FC3F1D"/>
</g>
<defs>
<clipPath id="clip0_482_351">
<rect width="66" height="18" fill="white"/>
</clipPath>
</defs>
</svg>
