<svg width="53" height="15" viewBox="0 0 53 15" fill="none" xmlns="http://www.w3.org/2000/svg">
<path d="M47.5514 0H37.3477C37.9421 3.29032 41.2112 6.3871 44.7776 6.3871H52.901C53 6.09678 53 5.6129 53 5.32258C53 2.41935 50.5234 0 47.5514 0Z" fill="url(#paint0_linear_264_5570)"/>
<path d="M38.2393 6.96777V15H43.1925V10.742H47.5514C49.929 10.742 52.0094 9.09681 52.7028 6.96777H38.2393Z" fill="#4FAD50"/>
<path d="M20.8037 0V14.9032H25.1626C25.1626 14.9032 26.2523 14.9032 26.8467 13.8387C29.8187 8.12903 30.7103 6.3871 30.7103 6.3871H31.3047V14.9032H36.2579V0H31.8991C31.8991 0 30.8093 0.0967801 30.215 1.06452C27.7383 6.00001 26.3514 8.51613 26.3514 8.51613H25.757V0H20.8037Z" fill="#4FAD50"/>
<path d="M0 14.9999V0.0966797H4.95327C4.95327 0.0966797 6.3402 0.0966767 7.13272 2.22571C9.11403 7.83861 9.31217 8.61281 9.31217 8.61281C9.31217 8.61281 9.70842 7.25797 11.4916 2.22571C12.2841 0.0966767 13.671 0.0966797 13.671 0.0966797H18.6243V14.9999H13.671V6.96765H13.0766L10.3028 14.9999H8.12338L5.34956 6.96765H4.75516V14.9999H0Z" fill="#4FAD50"/>
<defs>
<linearGradient id="paint0_linear_264_5570" x1="37.33" y1="3.23933" x2="52.9649" y2="3.23933" gradientUnits="userSpaceOnUse">
<stop stop-color="#27B1E6"/>
<stop offset="1" stop-color="#148ACA"/>
</linearGradient>
</defs>
</svg>
