<svg width="51" height="15" viewBox="0 0 51 15" fill="none" xmlns="http://www.w3.org/2000/svg">
<path d="M47.5702 0.214355H44.364C43.3947 0.214355 42.6491 0.50007 42.2018 1.42864L36.0877 14.7858H40.4123C40.4123 14.7858 41.1579 13.0001 41.307 12.5715C41.7544 12.5715 46.0044 12.5715 46.6009 12.5715C46.75 13.0715 47.1228 14.7144 47.1228 14.7144H51L47.5702 0.214355ZM42.5 9.5715C42.8728 8.71436 44.1404 5.50007 44.1404 5.50007C44.1404 5.5715 44.5132 4.64293 44.6623 4.14293L44.9605 5.42864C44.9605 5.42864 45.7807 8.92864 45.9298 9.64293H42.5V9.5715Z" fill="#3362AB"/>
<path d="M36.386 10C36.386 13 33.5526 15 29.1535 15C27.2895 15 25.5 14.6429 24.5307 14.2143L25.1272 10.9286L25.6491 11.1429C26.9912 11.7143 27.886 11.9286 29.5263 11.9286C30.7193 11.9286 31.9868 11.5 31.9868 10.5C31.9868 9.85714 31.4649 9.42857 29.8246 8.71429C28.2588 8 26.171 6.85714 26.171 4.78571C26.171 1.92857 29.0789 0 33.1798 0C34.7456 0 36.0877 0.285714 36.9079 0.642857L36.3114 3.78571L36.0132 3.5C35.2675 3.21429 34.2982 2.92857 32.8816 2.92857C31.3158 3 30.5702 3.64286 30.5702 4.21429C30.5702 4.85714 31.4649 5.35714 32.8816 6C35.2675 7.07143 36.386 8.28571 36.386 10Z" fill="#3362AB"/>
<path d="M0 0.357248L0.0745614 0.0715332H6.48684C7.38158 0.0715332 8.05263 0.357247 8.27632 1.28582L9.69298 7.71439C8.27632 4.28582 4.99561 1.5001 0 0.357248Z" fill="#F9B50B"/>
<path d="M18.7149 0.214251L12.2281 14.7143H7.82895L4.10088 2.57139C6.78509 4.21425 9.02193 6.78568 9.8421 8.57139L10.2895 10.0714L14.3158 0.142822H18.7149V0.214251Z" fill="#3362AB"/>
<path d="M20.4298 0.142822H24.5307L21.9211 14.7143H17.8202L20.4298 0.142822Z" fill="#3362AB"/>
</svg>
