<svg width="41" height="25" viewBox="0 0 41 25" fill="none" xmlns="http://www.w3.org/2000/svg">
<path d="M41 12.5C41 19.359 35.5123 25 28.7 25C21.9508 25 16.4 19.359 16.4 12.5C16.4 5.64103 21.8877 0 28.6369 0C35.5123 0 41 5.64103 41 12.5Z" fill="#F9B50B"/>
<path d="M24.5369 12.5641C24.5369 11.6667 24.4108 10.7692 24.2846 9.9359H16.7154C16.7785 9.48718 16.9046 9.10256 17.0308 8.58974H23.78C23.6538 8.14103 23.4646 7.69231 23.2754 7.24359H17.5354C17.7246 6.79487 17.9769 6.41026 18.2292 5.89744H22.5815C22.3292 5.44872 22.0138 5 21.6354 4.55128H19.2385C19.6169 4.10256 19.9954 3.71795 20.5 3.26923C18.3554 1.21795 15.4538 0 12.2369 0C5.55077 0.192308 0 5.64103 0 12.5C0 19.359 5.48769 25 12.3 25C15.5169 25 18.3554 23.718 20.5631 21.7308C21.0046 21.3462 21.3831 20.8974 21.8246 20.3846H19.3015C18.9862 20 18.6708 19.5513 18.4185 19.1026H22.7077C22.96 18.7179 23.2123 18.2692 23.4015 17.7564H17.6615C17.4723 17.3718 17.2831 16.9231 17.1569 16.4103H23.9062C24.2846 15.2564 24.5369 13.9744 24.5369 12.5641Z" fill="#C8191C"/>
<path d="M16.6523 15.7052L16.8415 14.5513C16.7785 14.5513 16.6523 14.6154 16.5262 14.6154C16.0846 14.6154 16.0215 14.359 16.0846 14.2308L16.4631 11.9231H17.1569L17.3462 10.6411H16.7154L16.8415 9.87183H15.5169C15.5169 9.87183 14.76 14.2308 14.76 14.7436C14.76 15.5129 15.2015 15.8975 15.8323 15.8975C16.2108 15.8975 16.5262 15.7693 16.6523 15.7052Z" fill="white"/>
<path d="M17.0938 13.5897C17.0938 15.4487 18.3554 15.8974 19.3646 15.8974C20.3108 15.8974 20.7523 15.7051 20.7523 15.7051L21.0046 14.423C21.0046 14.423 20.3108 14.7435 19.6169 14.7435C18.1661 14.7435 18.4185 13.6538 18.4185 13.6538H21.0677C21.0677 13.6538 21.2569 12.8205 21.2569 12.4358C21.2569 11.6025 20.8154 10.5128 19.3646 10.5128C18.1031 10.4487 17.0938 11.923 17.0938 13.5897ZM19.3646 11.6666C20.0585 11.6666 19.9323 12.4999 19.9323 12.564H18.4815C18.5446 12.4999 18.6708 11.6666 19.3646 11.6666Z" fill="white"/>
<path d="M27.6277 15.7051L27.88 14.2307C27.88 14.2307 27.2492 14.5512 26.7446 14.5512C25.8615 14.5512 25.42 13.8461 25.42 13.0128C25.42 11.4102 26.1769 10.5769 27.1231 10.5769C27.7538 10.5769 28.3215 10.9615 28.3215 10.9615L28.5108 9.55123C28.5108 9.55123 27.7538 9.23071 26.9969 9.23071C25.4831 9.23071 24.0323 10.5769 24.0323 13.0769C24.0323 14.7435 24.7892 15.8333 26.3661 15.8333C26.9338 15.8974 27.6277 15.7051 27.6277 15.7051Z" fill="white"/>
<path d="M9.52461 10.4487C8.64154 10.4487 7.94769 10.7051 7.94769 10.7051L7.75846 11.859C7.75846 11.859 8.32615 11.6026 9.20923 11.6026C9.65077 11.6026 10.0292 11.6667 10.0292 12.0513C10.0292 12.3077 9.96615 12.3718 9.96615 12.3718H9.39846C8.26307 12.3718 7.06461 12.8205 7.06461 14.359C7.06461 15.5769 7.82154 15.8333 8.32615 15.8333C9.20923 15.8333 9.65077 15.2564 9.71384 15.2564L9.65077 15.7692H10.7231L11.2277 12.1154C11.2277 10.5128 9.96615 10.4487 9.52461 10.4487ZM9.77692 13.3974C9.77692 13.5898 9.65077 14.6795 8.89384 14.6795C8.51538 14.6795 8.38923 14.359 8.38923 14.1667C8.38923 13.8462 8.57846 13.3974 9.58769 13.3974C9.71384 13.3974 9.77692 13.3974 9.77692 13.3974Z" fill="white"/>
<path d="M12.4892 15.8332C12.8046 15.8332 14.4446 15.8973 14.4446 14.1025C14.4446 12.4358 12.8677 12.7563 12.8677 12.1153C12.8677 11.7948 13.12 11.6666 13.5615 11.6666C13.7508 11.6666 14.4446 11.7307 14.4446 11.7307L14.6338 10.5127C14.6338 10.5127 14.1923 10.3845 13.3723 10.3845C12.4262 10.3845 11.4169 10.7691 11.4169 12.1153C11.4169 13.6538 13.0569 13.5255 13.0569 14.1025C13.0569 14.4871 12.6154 14.5512 12.3 14.5512C11.7323 14.5512 11.1015 14.3589 11.1015 14.3589L10.9123 15.5768C11.0385 15.705 11.4169 15.8332 12.4892 15.8332Z" fill="white"/>
<path d="M38.4769 9.4231L38.2246 11.218C38.2246 11.218 37.72 10.5769 36.9631 10.5769C35.7646 10.5769 34.7554 12.0513 34.7554 13.7821C34.7554 14.8718 35.26 15.9616 36.3954 15.9616C37.1523 15.9616 37.6569 15.4487 37.6569 15.4487L37.5938 15.8975H38.9185L39.8646 9.5513L38.4769 9.4231ZM37.8462 12.8846C37.8462 13.5898 37.5308 14.5513 36.7738 14.5513C36.3323 14.5513 36.08 14.1667 36.08 13.4616C36.08 12.3718 36.5215 11.7308 37.1523 11.7308C37.5939 11.7949 37.8462 12.1154 37.8462 12.8846Z" fill="white"/>
<path d="M2.39692 15.7693L3.15385 11.0257L3.28 15.7693H4.16308L5.86615 11.0257L5.17231 15.7693H6.56L7.63231 9.4231H5.48769L4.16308 13.3334L4.1 9.4231H2.20769L1.13538 15.7693H2.39692Z" fill="white"/>
<path d="M22.5815 15.7692C22.96 13.5897 23.0231 11.7949 23.9692 12.1154C24.0954 11.282 24.2846 10.8974 24.4108 10.5769H24.1585C23.5908 10.5769 23.0862 11.3461 23.0862 11.3461L23.2123 10.641H21.9508L21.1308 15.7692H22.5815V15.7692Z" fill="white"/>
<path d="M30.6554 10.4487C29.7723 10.4487 29.0785 10.7051 29.0785 10.7051L28.8892 11.859C28.8892 11.859 29.4569 11.6026 30.34 11.6026C30.7815 11.6026 31.16 11.6667 31.16 12.0513C31.16 12.3077 31.0969 12.3718 31.0969 12.3718H30.5292C29.3939 12.3718 28.1954 12.8205 28.1954 14.359C28.1954 15.5769 28.9523 15.8333 29.4569 15.8333C30.34 15.8333 30.7815 15.2564 30.8446 15.2564L30.7815 15.7692H31.98L32.4846 12.1154C32.4846 10.5128 31.0969 10.4487 30.6554 10.4487ZM30.9708 13.3974C30.9708 13.5898 30.8446 14.6795 30.0877 14.6795C29.7092 14.6795 29.5831 14.359 29.5831 14.1667C29.5831 13.8462 29.7723 13.3974 30.7815 13.3974C30.9077 13.3974 30.9077 13.3974 30.9708 13.3974Z" fill="white"/>
<path d="M33.4938 15.7692C33.8723 13.5897 33.9354 11.7949 34.8815 12.1154C35.0077 11.282 35.1969 10.8974 35.3231 10.5769H35.0708C34.5031 10.5769 33.9985 11.3461 33.9985 11.3461L34.1246 10.641H32.8631L32.0431 15.7692H33.4938V15.7692Z" fill="white"/>
</svg>
